<svg width="190" height="42" viewBox="0 0 190 42" fill="none" xmlns="http://www.w3.org/2000/svg">
<path d="M2.94678 36.8109H189.254V41.8898H2.94678V36.8109Z" fill="#6ECB98"/>
<path d="M33.0827 29.6897H25.5304C25.4941 28.8602 25.4941 28.0548 25.456 27.1569C25.2029 27.2375 24.9699 27.2747 24.7931 27.3649C20.9129 29.3015 16.8063 30.1917 12.5249 30.3007C10.5656 30.3481 8.62425 30.238 6.72347 29.7212C4.65185 29.1641 2.84528 28.1993 1.41643 26.4179C-0.468179 24.0682 -0.615463 18.3775 2.66508 15.8016C4.35473 14.4726 6.23564 13.6377 8.24086 13.0574C10.6783 12.3536 13.1568 11.8817 15.682 11.6689C18.6251 11.4194 21.5639 11.1512 24.5039 10.8856C24.7951 10.8595 25.1933 10.7877 25.456 10.7414C25.6104 9.42696 24.9058 8.24812 23.7298 7.76257C22.7195 7.34285 21.6599 6.97564 20.5923 6.81331C18.5703 6.50853 16.5356 6.53009 14.4867 6.68277C11.4646 6.90724 8.51869 7.47765 5.61671 8.33553C4.71513 8.60001 2.94659 9.23257 2.94659 9.23257V2.07213C2.94659 2.07213 4.81474 1.61439 5.85282 1.41943C10.1465 0.612351 14.4679 0.0782703 18.8388 0.283162C22.2002 0.442081 25.51 0.91146 28.5135 2.68341C31.382 4.37618 33.07 6.86836 33.0836 10.3898C33.1091 16.5658 33.1131 29.3639 33.0827 29.6894V29.6897ZM25.4572 16.7069C25.0738 16.7069 24.8326 16.7032 24.5939 16.7069C20.7239 16.7838 16.8764 17.1365 13.0723 17.8971C11.5827 18.1942 10.1079 18.6122 8.81496 19.5231C8.06066 20.0532 7.71189 20.7854 7.82313 21.723C7.92246 22.531 8.57005 22.9932 9.26106 23.2915C11.7706 24.3849 14.6396 24.1519 17.2535 23.617C19.9892 23.0582 22.6125 22.0817 24.9413 20.5252C25.1544 20.383 25.4535 20.1931 25.4535 20.1931V16.7071H25.4572V16.7069ZM155.315 0.871162V29.6497H162.954V18.0355H181.574V29.6755H189.253V0.871162H181.574V11.0967H162.954V0.870878H155.314L155.315 0.871162ZM49.0546 20.6898V29.6545H41.4861V0.870595H62.7623C64.9105 0.870595 66.9651 1.41092 68.8233 2.65957C71.0206 4.14063 72.1087 6.3218 72.3357 8.93573C72.4648 10.4389 72.4021 12.0063 72.1436 13.4905C71.4753 17.2926 69.0154 19.3514 65.557 20.1426C63.9697 20.5064 62.3071 20.6503 60.6727 20.6866C57.1402 20.7689 49.4874 20.6892 49.0546 20.6892V20.6898ZM49.0546 14.3364C49.3231 14.3611 56.6314 14.3744 60.1356 14.3364C60.9509 14.3285 61.7778 14.1661 62.5761 13.963C63.9814 13.606 64.6557 12.64 64.6735 11.1325C64.6755 10.9103 64.6755 10.6875 64.6735 10.4642C64.652 8.9695 63.9366 7.97767 62.5758 7.55001C61.941 7.35136 61.3195 7.14449 60.6586 7.13654C56.9401 7.0883 49.2209 7.09766 49.0541 7.13654V14.3364H49.0549H49.0546ZM105.905 22.0411C101.087 24.2283 96.0969 24.7107 90.9885 23.5055C88.678 22.962 86.637 21.8607 85.3455 19.6276C84.426 18.0384 84.1831 16.2974 84.3125 14.4834C84.4692 12.3329 85.2019 10.4662 86.8487 9.07734C87.8547 8.23053 88.9697 7.58009 90.2158 7.20919C93.7736 6.1484 97.3546 6.22276 100.975 6.87149C103.251 7.28099 107.767 9.47378 108.833 9.96757V2.78103C105.26 1.14473 101.579 0.207108 97.746 0.062946C95.7765 -0.0131081 93.7852 0.0808243 91.8192 0.27777C88.9575 0.565243 86.1878 1.28577 83.63 2.73108C80.3716 4.56659 78.0622 7.22678 77.055 11.0079C76.5025 13.0878 76.4103 15.2056 76.6472 17.3448C76.8274 18.9709 77.2355 20.5206 77.9566 21.9841C79.4382 24.9769 81.7988 26.9455 84.6562 28.3514C87.4302 29.7175 90.4034 30.2348 93.4103 30.4528C97.7221 30.7604 101.984 30.337 106.108 28.8627C107.021 28.5372 107.919 28.1575 108.837 27.8V20.5422C108.403 20.7613 106.572 21.7383 105.905 22.0406L105.905 22.0411ZM155.315 0.870595V29.6497H162.954V18.0355H181.574V29.6755H189.253V0.871162H181.574V11.0967H162.954V0.870878H155.315L155.315 0.870595ZM148.752 18.3823C148.776 17.3547 148.799 16.3751 148.776 15.4097C148.709 12.3164 147.893 9.19113 146.159 6.60303V6.5667C145 4.9917 143.483 3.71241 141.68 2.69703C137.912 0.582838 133.425 -0.181392 129.152 0.247973C126.284 0.535446 123.509 1.26136 120.957 2.69703C117.742 4.50359 115.327 7.3857 114.386 10.975C113.272 15.2176 113.764 20.3322 116.475 23.9016C117.899 25.8478 119.796 27.246 121.983 28.3221C124.755 29.6843 127.729 30.2065 130.739 30.4236C134.358 30.6486 137.998 30.3861 141.55 29.6593C143.21 29.3239 146.411 28.367 146.411 28.367V21.4869C146.411 21.4869 140.825 23.8471 134.442 24.27C133.121 24.3597 128.157 24.1917 125.158 22.5372C123.602 21.6734 122.414 20.4372 121.83 18.3937H139.795C142.766 18.3948 145.729 18.4064 148.752 18.3823ZM122.109 12.0642C122.505 10.9055 123.244 9.83163 124.179 9.05265C126.327 7.26197 129.107 6.54145 131.866 6.4407C133.309 6.38905 134.745 6.54343 136.124 6.98472C138.336 7.70155 140.162 8.93403 140.915 11.3953C141.024 11.7035 141.056 12.0505 141.14 12.445H121.99C122.026 12.3187 122.068 12.1902 122.109 12.0642Z" fill="#F42534"/>
</svg>
