<svg width="14" height="24" viewBox="0 0 14 24" fill="none" xmlns="http://www.w3.org/2000/svg">
<path d="M8.64758 24H4.69753C4.03774 24 3.50103 23.4778 3.50103 22.8358V14.1669H1.19649C0.53671 14.1669 0 13.6445 0 13.0027V9.28802C0 8.64606 0.53671 8.12384 1.19649 8.12384H3.50103V6.26367C3.50103 4.41925 4.09627 2.85004 5.2222 1.72595C6.3532 0.596741 7.93378 0 9.79307 0L12.8056 0.00476072C13.4642 0.00585938 14 0.528076 14 1.16895V4.61792C14 5.25989 13.4635 5.7821 12.8039 5.7821L10.7756 5.78284C10.157 5.78284 9.99952 5.9035 9.96583 5.94049C9.91032 6.00183 9.84426 6.17523 9.84426 6.65405V8.12366H12.6515C12.8628 8.12366 13.0675 8.17438 13.2435 8.26996C13.6231 8.47632 13.859 8.86652 13.859 9.28821L13.8575 13.0029C13.8575 13.6445 13.3208 14.1667 12.661 14.1667H9.84426V22.8358C9.84426 23.4778 9.30736 24 8.64758 24ZM4.94707 22.593H8.39804V13.537C8.39804 13.1083 8.75654 12.7597 9.1969 12.7597H12.4115L12.4128 9.53082H9.19671C8.75635 9.53082 8.39804 9.18219 8.39804 8.75354V6.65405C8.39804 6.10437 8.45544 5.47925 8.88187 5.0094C9.39713 4.44141 10.2092 4.37585 10.7752 4.37585L12.554 4.37512V1.41138L9.79195 1.40698C6.80391 1.40698 4.94707 3.26807 4.94707 6.26367V8.75354C4.94707 9.18201 4.58876 9.53082 4.1484 9.53082H1.44603V12.7597H4.1484C4.58876 12.7597 4.94707 13.1083 4.94707 13.537V22.593ZM12.8028 1.41174H12.8029H12.8028Z" fill="white"/>
</svg>
