<svg width="22" height="22" viewBox="0 0 22 22" fill="none" xmlns="http://www.w3.org/2000/svg">
<path d="M16.2454 0.000488281H6.49545C3.32224 0.000488281 0.740723 2.582 0.740723 5.75521V15.5053C0.740723 18.6784 3.32224 21.2599 6.49545 21.2599H16.2456C19.4186 21.2599 22.0001 18.6784 22.0001 15.5053V5.75521C22.0001 2.582 19.4186 0.000488281 16.2454 0.000488281V0.000488281ZM20.7538 15.5053C20.7538 17.9911 18.7314 20.0136 16.2454 20.0136H6.49545C4.00946 20.0136 1.98704 17.9911 1.98704 15.5053V5.75521C1.98704 3.26923 4.00946 1.2468 6.49545 1.2468H16.2456C18.7314 1.2468 20.7538 3.26923 20.7538 5.75521V15.5053Z" fill="white"/>
<path d="M11.3696 4.81714C8.16427 4.81714 5.55664 7.42477 5.55664 10.6301C5.55664 13.8354 8.16427 16.443 11.3696 16.443C14.5749 16.443 17.1825 13.8354 17.1825 10.6301C17.1825 7.42477 14.5749 4.81714 11.3696 4.81714ZM11.3696 15.1967C8.85166 15.1967 6.80296 13.1482 6.80296 10.6301C6.80296 8.11216 8.85166 6.06345 11.3696 6.06345C13.8877 6.06345 15.9362 8.11216 15.9362 10.6301C15.9362 13.1482 13.8877 15.1967 11.3696 15.1967Z" fill="white"/>
<path d="M17.3222 2.75293C16.3749 2.75293 15.6045 3.52352 15.6045 4.47059C15.6045 5.41781 16.3749 6.18841 17.3222 6.18841C18.2694 6.18841 19.04 5.41781 19.04 4.47059C19.04 3.52336 18.2694 2.75293 17.3222 2.75293ZM17.3222 4.94193C17.0623 4.94193 16.8508 4.73043 16.8508 4.47059C16.8508 4.21059 17.0623 3.99925 17.3222 3.99925C17.5822 3.99925 17.7937 4.21059 17.7937 4.47059C17.7937 4.73043 17.5822 4.94193 17.3222 4.94193Z" fill="white"/>
</svg>
