<svg width="46" height="46" viewBox="0 0 46 46" fill="none" xmlns="http://www.w3.org/2000/svg">
<path d="M23 0C10.317 0 0 10.317 0 23C0 35.683 10.317 46 23 46C35.683 46 46 35.6812 46 23C46 10.3188 35.683 0 23 0ZM23 42.4369C12.2839 42.4369 3.56311 33.7179 3.56311 23C3.56311 12.2821 12.2839 3.56311 23 3.56311C33.7179 3.56311 42.4369 12.2821 42.4369 23C42.4369 33.7179 33.7161 42.4369 23 42.4369Z" fill="white"/>
<path d="M33.1726 25.4587L24.2648 16.5509C23.5699 15.8597 22.4476 15.8597 21.7527 16.5509L12.8449 25.4587C12.2731 26.125 12.2731 27.1103 12.8449 27.7765C13.4845 28.523 14.6104 28.6103 15.3569 27.9707L22.9999 20.3279L30.6606 27.9708C31.3554 28.662 32.4778 28.662 33.1726 27.9708C33.8639 27.2759 33.8639 26.1535 33.1726 25.4587Z" fill="white"/>
</svg>
