<svg width="25" height="19" viewBox="0 0 25 19" fill="none" xmlns="http://www.w3.org/2000/svg">
<path d="M16.1787 8.26269L10.7129 5.27204C10.3987 5.10009 10.0272 5.1065 9.71914 5.28903C9.4109 5.47175 9.22705 5.79452 9.22705 6.15278V12.0827C9.22705 12.4393 9.40977 12.7615 9.71593 12.9444C9.8758 13.0399 10.053 13.0879 10.2307 13.0879C10.3934 13.0879 10.5565 13.0477 10.7065 12.9669L16.1725 10.0277C16.497 9.85315 16.6995 9.51584 16.701 9.1472C16.7023 8.77856 16.5023 8.43974 16.1787 8.26269ZM10.6769 11.3368V6.90478L14.7619 9.14003L10.6769 11.3368Z" fill="white"/>
<path d="M24.5586 4.42274L24.5575 4.41141C24.5366 4.21228 24.328 2.44099 23.4669 1.54006C22.4716 0.480384 21.3432 0.351652 20.8005 0.289929C20.7556 0.284833 20.7144 0.280114 20.6776 0.275206L20.6344 0.270676C17.3637 0.0328435 12.4241 0.000377512 12.3746 0.000188756L12.3703 0L12.366 0.000188756C12.3165 0.000377512 7.37696 0.0328435 4.07675 0.270676L4.03315 0.275206C3.99804 0.279925 3.95934 0.284266 3.91725 0.289174C3.38081 0.351086 2.2645 0.480006 1.26636 1.578C0.446219 2.4693 0.209141 4.20265 0.184792 4.39744L0.181961 4.42274C0.174599 4.5056 0 6.47829 0 8.45872V10.31C0 12.2905 0.174599 14.2631 0.181961 14.3462L0.183282 14.3587C0.204234 14.5546 0.41262 16.2934 1.26976 17.1947C2.20561 18.2189 3.38892 18.3544 4.02541 18.4273C4.12601 18.4388 4.21265 18.4486 4.27173 18.459L4.32893 18.4669C6.21743 18.6466 12.1385 18.7351 12.3896 18.7387L12.3971 18.7389L12.4047 18.7387C12.4541 18.7385 17.3935 18.7061 20.6642 18.4683L20.7075 18.4637C20.7488 18.4582 20.7952 18.4533 20.8462 18.4481C21.3796 18.3914 22.4899 18.2738 23.4742 17.1908C24.2944 16.2993 24.5317 14.5659 24.5558 14.3713L24.5586 14.346C24.566 14.263 24.7408 12.2905 24.7408 10.31V8.45872C24.7406 6.47829 24.566 4.50579 24.5586 4.42274ZM23.2908 10.31C23.2908 12.143 23.1307 14.0308 23.1156 14.2041C23.0541 14.6814 22.804 15.7781 22.4044 16.2124C21.7883 16.8903 21.1554 16.9574 20.6933 17.0063C20.6374 17.0122 20.5857 17.0178 20.5389 17.0237C17.3754 17.2525 12.6223 17.2876 12.4033 17.2889C12.1578 17.2853 6.32332 17.196 4.49239 17.026C4.39858 17.0107 4.29722 16.999 4.19038 16.9869C3.64846 16.9248 2.90665 16.8399 2.33623 16.2124L2.32283 16.1981C1.93022 15.789 1.68729 14.7635 1.62557 14.2097C1.61405 14.0787 1.44983 12.1687 1.44983 10.31V8.45872C1.44983 6.62778 1.60952 4.74211 1.625 4.56525C1.69843 4.00295 1.95325 2.97272 2.33623 2.55632C2.97121 1.85792 3.64072 1.78053 4.08354 1.72938C4.12583 1.72447 4.16528 1.71994 4.20171 1.71522C7.41131 1.48532 12.1985 1.45115 12.3703 1.44983C12.5421 1.45097 17.3276 1.48532 20.5087 1.71522C20.5478 1.72013 20.5904 1.72504 20.6363 1.73032C21.0918 1.78223 21.7802 1.86076 22.4119 2.53461L22.4178 2.54084C22.8104 2.94988 23.0533 3.99332 23.115 4.55826C23.126 4.6819 23.2908 6.59607 23.2908 8.45872V10.31Z" fill="white"/>
</svg>
