<svg width="106" height="88" viewBox="0 0 106 88" fill="none" xmlns="http://www.w3.org/2000/svg">
<g clip-path="url(#clip0)">
<path d="M5.54798 75.312L0 86.0351H2.56384L3.7617 83.7358H10.4445L11.6423 86.0351H14.2062L8.67922 75.312H5.54798ZM4.79143 81.6664L7.06106 77.256L9.3517 81.6664H4.79143Z" fill="white"/>
<path d="M25.4279 75.312L20.9307 83.1714L16.4335 75.312H13.5964L20.9307 87.9999L28.265 75.312H25.4279Z" fill="white"/>
<path d="M33.3297 75.312L27.7817 86.0351H30.3456L31.5434 83.7358H38.2472L39.4451 86.0351H42.0089L36.482 75.312H33.3297ZM32.5942 81.6664L34.8638 77.256L37.1545 81.6664H32.5942Z" fill="white"/>
<path d="M47.9563 77.3814H52.9369V86.0351H55.4587V77.3814H60.4182V75.312H47.9563V77.3814Z" fill="white"/>
<path d="M66.0084 81.6246H72.0818V79.5552H66.0084V77.3814H74.7717V75.312H63.4656V86.0351H75.171V83.9657H66.0084V81.6246Z" fill="white"/>
<path d="M80.8027 78.0712C81.6013 77.4023 82.652 77.0679 83.9339 77.0679C85.6992 77.0679 87.2123 77.7159 88.4732 79.0118L90.7848 78.1757C89.1247 76.0646 86.9181 74.9985 84.1441 74.9985C82.0216 74.9985 80.2563 75.5838 78.8693 76.7544C77.6714 77.7786 77.062 79.0745 77.062 80.6422C77.062 81.5411 77.2722 82.3772 77.6714 83.1297C78.0917 83.9031 78.6381 84.4883 79.3316 84.9482C80.7817 85.8679 82.4208 86.3278 84.2281 86.3278C85.5941 86.3278 86.792 86.0978 87.8007 85.638C88.8304 85.1781 89.7551 84.4465 90.6377 83.4432L88.4942 82.2517C87.2963 83.5895 85.8463 84.2584 84.1231 84.2584C82.7571 84.2584 81.6433 83.924 80.8237 83.2551C80.0041 82.5862 79.5838 81.7083 79.5838 80.6422C79.5838 79.618 80.0041 78.7401 80.8027 78.0712Z" fill="white"/>
<path d="M103.457 75.333V79.2209H95.9339V75.333H93.4121V86.0143H95.9339V81.4157H103.457V86.0143H106V75.333H103.457Z" fill="white"/>
<path d="M79.101 41.429L52.9372 0L26.7734 41.429L27.2988 42.3905C29.2742 46.4665 32.2794 49.6646 36.2302 51.943C40.16 54.2005 44.9935 55.4755 50.6045 55.7473L52.8952 60.3876L55.2068 55.7473C60.7128 55.4546 65.5462 54.0542 69.6232 51.5877C71.5986 50.3753 73.4269 48.9121 75.003 47.2399C76.39 45.7558 77.6299 44.0836 78.6807 42.2651H78.6596L79.101 41.429ZM54.5133 8.0057L67.5217 28.6993H54.5133V8.0057ZM63.5708 31.7929L59.4939 39.9867H46.2964L42.2615 31.7929H63.5708ZM51.3401 8.0266V28.6784H38.3527L51.3401 8.0266ZM37.7433 29.6399L42.829 39.9867H31.2286L37.7433 29.6399ZM37.8063 49.1839C35.0534 47.6162 32.8468 45.505 31.2076 42.8922H44.279L48.9864 52.4447C44.6362 52.0475 40.8745 50.9606 37.8063 49.1839ZM52.9162 53.3644L47.7465 42.8922H58.0649L52.9162 53.3644ZM56.825 52.4238L61.5534 42.8922H74.4566C71.3044 47.1772 65.9245 51.4622 56.825 52.4238ZM62.9824 39.9867L68.1311 29.619L74.6458 39.9867H62.9824Z" fill="white"/>
<path d="M70.2322 17.2448C70.3372 17.1193 70.4003 16.973 70.4003 16.7849C70.4003 16.3878 70.0851 16.0742 69.6858 16.0742H68.3408V18.5616H69.7909C70.2112 18.5616 70.5264 18.2272 70.5264 17.83C70.5264 17.5792 70.4003 17.3702 70.2322 17.2448ZM68.7191 16.4714H69.6648C69.8329 16.4714 69.98 16.6177 69.98 16.7849C69.98 16.9521 69.8329 17.0984 69.6648 17.0984H68.7191V16.4714ZM69.7909 18.1854H68.7401V17.4956H69.7909C69.98 17.4956 70.1481 17.6419 70.1481 17.8509C70.1271 18.0182 69.98 18.1854 69.7909 18.1854Z" fill="white"/>
<path d="M69.2867 15.0918C68.0468 15.0918 67.0381 16.0951 67.0381 17.3284C67.0381 18.5616 68.0468 19.565 69.2867 19.565C70.5266 19.565 71.5353 18.5616 71.5353 17.3284C71.5353 16.0951 70.5266 15.0918 69.2867 15.0918ZM69.2867 19.1887C68.257 19.1887 67.4374 18.3526 67.4374 17.3493C67.4374 16.3251 68.278 15.5098 69.2867 15.5098C70.3164 15.5098 71.136 16.346 71.136 17.3493C71.136 18.3526 70.2954 19.1887 69.2867 19.1887Z" fill="white"/>
</g>
<defs>
<clipPath id="clip0">
<rect width="106" height="88" fill="white"/>
</clipPath>
</defs>
</svg>
