<svg width="117" height="15" viewBox="0 0 117 15" fill="none" xmlns="http://www.w3.org/2000/svg">
<g clip-path="url(#clip0)">
<path d="M6.06043 0.348633L0 12.7324H2.86187L4.20863 10.1161H11.6158L12.9626 12.7324H15.8245L9.59568 0.348633H6.06043ZM5.2187 7.67421L7.74388 2.61607L10.2691 7.67421H5.2187Z" fill="white"/>
<path d="M28.1134 0.348633L23.063 9.4184L18.181 0.348633H14.9824L23.063 14.9998L31.1436 0.348633H28.1134Z" fill="white"/>
<path d="M36.8671 0.348633L30.8066 12.7324H33.6685L35.0153 10.1161H42.4225L43.7692 12.7324H46.6311L40.5707 0.348633H36.8671V0.348633ZM36.0253 7.67421L38.5505 2.61607L41.0757 7.67421H36.0253Z" fill="white"/>
<path d="M53.0283 2.79049H58.4154V12.7324H61.2772V2.79049H66.6643V0.348633H53.0283V2.79049Z" fill="white"/>
<path d="M72.8931 7.67421H79.6269V5.23235H72.8931V2.79049H82.4888V0.348633H70.0312V12.7324H82.9938V10.2905H72.8931V7.67421Z" fill="white"/>
<path d="M89.2233 3.48837C90.065 2.7907 91.2434 2.26744 92.7585 2.26744C94.7787 2.26744 96.2938 2.96512 97.8089 4.53488L100.334 3.48837C98.3139 1.22093 95.9571 0 92.9269 0C90.57 0 88.7182 0.697674 87.0348 2.09302C85.688 3.31395 85.0146 4.7093 85.0146 6.62791C85.0146 7.67442 85.183 8.54651 85.688 9.4186C86.1931 10.2907 86.6981 10.9884 87.5398 11.5116C89.0549 12.5581 90.9067 13.0814 92.9269 13.0814C94.442 13.0814 95.7888 12.7326 96.7988 12.2093C97.9772 11.686 98.9873 10.814 99.9974 9.76744L97.6406 8.37209C96.2938 9.94186 94.7787 10.6395 92.7585 10.6395C91.2434 10.6395 90.065 10.2907 89.0549 9.4186C88.2132 8.72093 87.7082 7.67442 87.7082 6.45349C87.8765 5.23256 88.3816 4.36046 89.2233 3.48837Z" fill="white"/>
<path d="M114.138 0.348633V4.88352H105.889V0.348633H103.027V12.7324H105.889V7.32538H114.138V12.7324H117V0.348633H114.138Z" fill="white"/>
</g>
<defs>
<clipPath id="clip0">
<rect width="117" height="15" fill="white"/>
</clipPath>
</defs>
</svg>
